<svg xmlns="http://www.w3.org/2000/svg" version="1.1" xmlns:xlink="http://www.w3.org/1999/xlink" viewBox="0 0 200 200"><rect width="200" height="200" fill="url('#gradient')"></rect><defs><linearGradient id="gradient" gradientTransform="rotate(158 0.5 0.5)"><stop offset="0%" stop-color="#4f17b7"></stop><stop offset="100%" stop-color="#e6dfe6"></stop></linearGradient></defs><g><g fill="#222121" transform="matrix(2.4885688568856885,0,0,2.4885688568856885,17.442897102126764,112.62028441802539)" stroke="#1a1b1a" stroke-width="0.1"><path d="M8.41-3.78L8.41-3.78Q8.41-4.53 7.88-4.95Q7.34-5.37 6.01-5.82Q4.67-6.27 3.82-6.69L3.82-6.69Q1.05-8.05 1.05-10.42L1.05-10.42Q1.05-11.60 1.74-12.50Q2.43-13.41 3.69-13.91Q4.95-14.41 6.52-14.41L6.52-14.41Q8.06-14.41 9.27-13.87Q10.49-13.32 11.16-12.31Q11.84-11.30 11.84-10L11.84-10L8.42-10Q8.42-10.87 7.89-11.35Q7.35-11.83 6.45-11.83L6.45-11.83Q5.53-11.83 5.00-11.42Q4.46-11.02 4.46-10.39L4.46-10.39Q4.46-9.84 5.05-9.40Q5.63-8.96 7.11-8.48Q8.58-8.01 9.53-7.46L9.53-7.46Q11.84-6.13 11.84-3.80L11.84-3.80Q11.84-1.93 10.43-0.87Q9.02 0.20 6.57 0.20L6.57 0.20Q4.84 0.20 3.44-0.42Q2.04-1.04 1.33-2.12Q0.63-3.20 0.63-4.61L0.63-4.61L4.06-4.61Q4.06-3.47 4.65-2.92Q5.24-2.38 6.57-2.38L6.57-2.38Q7.42-2.38 7.92-2.75Q8.41-3.12 8.41-3.78ZM13.47-10.57L16.55-10.57L16.66-9.33Q17.78-10.76 19.68-10.76L19.68-10.76Q21.68-10.76 22.38-9.17L22.38-9.17Q23.46-10.76 25.49-10.76L25.49-10.76Q28.70-10.76 28.79-6.88L28.79-6.88L28.79 0L25.49 0L25.49-6.67Q25.49-7.48 25.21-7.85Q24.94-8.22 24.22-8.22L24.22-8.22Q23.24-8.22 22.76-7.35L22.76-7.35L22.77-7.22L22.77 0L19.47 0L19.47-6.65Q19.47-7.48 19.21-7.85Q18.95-8.22 18.20-8.22L18.20-8.22Q17.26-8.22 16.76-7.35L16.76-7.35L16.76 0L13.47 0L13.47-10.57ZM39.91 0L36.62 0Q36.45-0.32 36.31-0.95L36.31-0.95Q35.40 0.20 33.77 0.20L33.77 0.20Q32.28 0.20 31.23-0.71Q30.19-1.61 30.19-2.98L30.19-2.98Q30.19-4.70 31.46-5.58Q32.72-6.46 35.15-6.46L35.15-6.46L36.16-6.46L36.16-7.01Q36.16-8.47 34.90-8.47L34.90-8.47Q33.73-8.47 33.73-7.31L33.73-7.31L30.44-7.31Q30.44-8.85 31.74-9.80Q33.05-10.76 35.07-10.76Q37.09-10.76 38.26-9.78Q39.43-8.79 39.46-7.07L39.46-7.07L39.46-2.39Q39.48-0.94 39.91-0.17L39.91-0.17L39.91 0ZM34.56-2.15L34.56-2.15Q35.18-2.15 35.58-2.41Q35.99-2.68 36.16-3.01L36.16-3.01L36.16-4.70L35.21-4.70Q33.49-4.70 33.49-3.15L33.49-3.15Q33.49-2.71 33.79-2.43Q34.09-2.15 34.56-2.15ZM47.73-10.64L47.68-7.59L46.59-7.67Q45.04-7.67 44.60-6.69L44.60-6.69L44.60 0L41.31 0L41.31-10.57L44.39-10.57L44.50-9.21Q45.33-10.76 46.82-10.76L46.82-10.76Q47.34-10.76 47.73-10.64L47.73-10.64ZM49.89-13.19L53.18-13.19L53.18-10.57L54.92-10.57L54.92-8.28L53.18-8.28L53.18-3.45Q53.18-2.85 53.40-2.62Q53.61-2.38 54.25-2.38L54.25-2.38Q54.74-2.38 55.07-2.44L55.07-2.44L55.07-0.09Q54.18 0.20 53.21 0.20L53.21 0.20Q51.51 0.20 50.70-0.61Q49.89-1.41 49.89-3.04L49.89-3.04L49.89-8.28L48.54-8.28L48.54-10.57L49.89-10.57L49.89-13.19ZM58.77-10.57L60.44-4.61L62.20-10.57L65.72-10.57L61.42 1.77L61.23 2.22Q60.31 4.27 57.99 4.27L57.99 4.27Q57.34 4.27 56.63 4.07L56.63 4.07L56.63 1.72L57.06 1.72Q57.75 1.72 58.12 1.52Q58.49 1.32 58.66 0.80L58.66 0.80L58.93 0.10L55.25-10.57L58.77-10.57Z"></path></g></g></svg>